<svg width="341" height="326" viewBox="0 0 341 326" fill="none" xmlns="http://www.w3.org/2000/svg">
<path d="M341 244.5C319.672 244.5 317.206 224.125 284.294 224.125C251.236 224.125 248.652 244.5 227.397 244.5C206.316 244.5 203.455 224.125 170.5 224.125C137.89 224.125 134.56 244.5 113.794 244.5C92.3684 244.5 90.0438 224.125 56.8968 224.125C23.7505 224.125 21.3863 244.5 0 244.5V193.562C0 176.689 16.365 163 36.5357 163H48.7143V71.3125H97.4286V163H146.143V71.3125H194.857V163H243.571V71.3125H292.286V163H304.464C324.635 163 341 176.689 341 193.562V244.5ZM341 326H0V264.875C33.0009 264.875 35.5972 244.5 56.8968 244.5C78.172 244.5 80.6853 264.875 113.794 264.875C146.404 264.875 149.733 244.5 170.5 244.5C191.925 244.5 194.249 264.875 227.397 264.875C260.398 264.875 262.994 244.5 284.294 244.5C305.216 244.5 308.081 264.875 341 264.875V326ZM73.0714 61.125C59.5608 61.125 48.7143 52.0518 48.7143 40.75C48.7143 21.0117 73.0714 26.1055 73.0714 0C82.2054 0 97.4286 18.7832 97.4286 35.6562C97.4286 52.5293 86.582 61.125 73.0714 61.125ZM170.5 61.125C156.989 61.125 146.143 52.0518 146.143 40.75C146.143 21.0117 170.5 26.1055 170.5 0C179.634 0 194.857 18.7832 194.857 35.6562C194.857 52.5293 184.011 61.125 170.5 61.125ZM267.929 61.125C254.418 61.125 243.571 52.0518 243.571 40.75C243.571 21.0117 267.929 26.1055 267.929 0C277.063 0 292.286 18.7832 292.286 35.6562C292.286 52.5293 281.439 61.125 267.929 61.125Z" fill="#1772FB"/>
</svg>
